With: Jon Voight, Teri Polo and Dermot Mulroney

John Koski is een rechercheur die onderzoek doet naar de ontvoering van het nichtje van de politiecommissaris. Hij wordt hierin bijgestaan door Farley, een beroemde helderziende die beweert het meisje gezien te hebben in visioenen. Naarmate het onderzoek vordert, komen er steeds vreemdere dingen aan het licht. Koski trekt zijn eigen geestelijke gezondheid in twijfel en ontdekt een duister geheim over zichzelf...

A detective teams with a tabloid psychic to track down a missing child. 

------------------------ Dutch Friends ------------------------
---------------------------------------------------------------
- Bezoek ook eens mijn vrienden op:  http://www.Film-Test.nl --
----- voor mijn Nederlandse Sync. ondertitels ---- en meer ----
------- http://www.Film-Test.nl ---- voor Films en meer -------
---------------------------------------------------------------

General:

Complete name                    : BeyondBeyond.avi
Format                           : AVI
Format/Info                      : Audio Video Interleave
File size                        : 1.07 GiB
Duration                         : 1h 26mn
Overall bit rate                 : 1 767 Kbps

Video:

Format                           : MPEG-4 Visual
Format profile                   : Simple@L3
Format settings, BVOP            : No
Format settings, QPel            : No
Format settings, GMC             : No warppoints
Format settings, Matrix          : Default (H.263)
Codec ID                         : XVID
Codec ID/Hint                    : XviD
Duration                         : 1h 26mn
Bit rate                         : 1 372 Kbps
Width                            : 720 pixels
Height                           : 304 pixels
Display aspect ratio             : 2.35:1
Frame rate                       : 25.000 fps
Color space                      : YUV
Chroma subsampling               : 4:2:0
Bit depth                        : 8 bits
Scan type                        : Progressive
Bits/(Pixel*Frame)               : 0.251
Stream size                      : 848 MiB (78%)
Writing library                  : XviD 1.1.2 (UTC 2006-11-01)

Audio:

Format                           : AC-3
Format/Info                      : Audio Coding 3
Mode extension                   : CM (complete main)
Codec ID                         : 2000
Duration                         : 1h 26mn
Bit rate mode                    : Constant
Bit rate                         : 384 Kbps
Channel(s)                       : 6 channels
Channel positions                : Front: L C R, Side: L R, LFE
Sampling rate                    : 48.0 KHz
Bit depth                        : 16 bits
Stream size                      : 237 MiB (22%)
Alignment                        : Aligned on interleaves
Interleave, duration             : 32 ms (0.80 video frame)
